<svg width="36" height="36" viewBox="0 0 36 36" fill="none" xmlns="http://www.w3.org/2000/svg">
<rect width="36" height="36" rx="18" fill="#3C3737"/>
<path fill-rule="evenodd" clip-rule="evenodd" d="M19.4305 25.6365V18.6704H21.8134L22.1709 15.9548H19.4305V14.2213C19.4305 13.4353 19.6521 12.8996 20.8025 12.8996L22.2674 12.899V10.4701C22.0141 10.4378 21.1445 10.3638 20.1324 10.3638C18.0189 10.3638 16.572 11.6291 16.572 13.9523V15.9548H14.1818V18.6704H16.572V25.6365H19.4305Z" fill="white"/>
<mask id="mask0_1215_178" style="mask-type:alpha" maskUnits="userSpaceOnUse" x="14" y="10" width="9" height="16">
<path fill-rule="evenodd" clip-rule="evenodd" d="M19.4305 25.6365V18.6704H21.8134L22.1709 15.9548H19.4305V14.2213C19.4305 13.4353 19.6521 12.8996 20.8025 12.8996L22.2674 12.899V10.4701C22.0141 10.4378 21.1445 10.3638 20.1324 10.3638C18.0189 10.3638 16.572 11.6291 16.572 13.9523V15.9548H14.1818V18.6704H16.572V25.6365H19.4305Z" fill="white"/>
</mask>
<g mask="url(#mask0_1215_178)">
</g>
</svg>
