<svg width="17" height="18" viewBox="0 0 17 18" fill="none" xmlns="http://www.w3.org/2000/svg">
<path d="M7.28598 1.43994C4.05357 1.43994 1.41638 4.12097 1.41638 7.40715C1.41638 10.6933 4.05357 13.3744 7.28598 13.3744C8.62127 13.3744 9.85623 12.9186 10.8444 12.1499L14.947 16.3269C15.2526 16.6376 15.7542 16.6376 16.0598 16.3269C16.3654 16.0162 16.3654 15.5125 16.0598 15.2018L11.9511 11.0248C12.7069 10.0203 13.1556 8.76436 13.1556 7.40715C13.1556 4.12097 10.5184 1.43994 7.28598 1.43994ZM7.28598 3.03119C9.67243 3.03119 11.5904 4.98096 11.5904 7.40715C11.5904 9.8333 9.67243 11.7831 7.28598 11.7831C4.89949 11.7831 2.98161 9.8333 2.98161 7.40715C2.98161 4.98096 4.89949 3.03119 7.28598 3.03119Z" fill="#A0A0A0"/>
</svg>