<svg width="24" height="24" viewBox="0 0 24 24" fill="none" xmlns="http://www.w3.org/2000/svg">
<path d="M10.2116 6.07542C10.1343 6.07536 10.0573 6.06731 9.98168 6.05142L8.51243 5.74279C8.36782 5.71255 8.23058 5.65413 8.10855 5.57086C7.98652 5.48758 7.88208 5.38108 7.80121 5.25745C7.72033 5.13381 7.6646 4.99546 7.6372 4.85029C7.6098 4.70511 7.61125 4.55596 7.64149 4.41135C7.67173 4.26674 7.73015 4.1295 7.81343 4.00747C7.8967 3.88544 8.0032 3.78101 8.12683 3.70013C8.25047 3.61926 8.38882 3.56353 8.53399 3.53613C8.67917 3.50872 8.82832 3.51018 8.97293 3.54042L10.4414 3.84717C10.714 3.90393 10.9559 4.05978 11.1203 4.28457C11.2846 4.50935 11.3597 4.7871 11.3311 5.06408C11.3025 5.34107 11.1722 5.5976 10.9654 5.78407C10.7586 5.97053 10.49 6.07367 10.2116 6.07354V6.07542ZM10.1347 5.31754C10.232 5.33712 10.3331 5.3176 10.4161 5.26321C10.4991 5.20882 10.5574 5.12394 10.5783 5.02692C10.5884 4.9787 10.5889 4.92897 10.5798 4.88056C10.5707 4.83215 10.5521 4.78602 10.5252 4.74478C10.4982 4.70355 10.4634 4.66803 10.4227 4.64026C10.382 4.61249 10.3363 4.593 10.2881 4.58292L8.81955 4.27542C8.77131 4.26537 8.72157 4.26494 8.67316 4.27413C8.62476 4.28332 8.57864 4.30196 8.53744 4.32898C8.49624 4.35601 8.46077 4.39089 8.43306 4.43163C8.40534 4.47237 8.38593 4.51817 8.37593 4.56642C8.35563 4.66373 8.37479 4.76512 8.42922 4.84831C8.48365 4.9315 8.56888 4.98967 8.66618 5.01004L10.1347 5.31679V5.31754Z" fill="#363636"/>
<path d="M13.4754 3.82098C13.1994 3.8208 12.9331 3.7192 12.7272 3.53551C12.5213 3.35182 12.39 3.09885 12.3585 2.82471C12.3269 2.55057 12.3972 2.27438 12.5559 2.04868C12.7147 1.82298 12.9509 1.66351 13.2196 1.6006L14.6799 1.2571C14.8244 1.22102 14.9747 1.21403 15.122 1.23652C15.2693 1.25902 15.4107 1.31055 15.5379 1.38813C15.6652 1.46571 15.7757 1.56779 15.8631 1.68845C15.9506 1.80911 16.0132 1.94593 16.0473 2.09098C16.0814 2.23604 16.0864 2.38642 16.0619 2.53341C16.0375 2.6804 15.984 2.82106 15.9048 2.94723C15.8255 3.07339 15.7219 3.18255 15.6001 3.26836C15.4783 3.35417 15.3406 3.41493 15.1951 3.4471L13.7349 3.7906C13.6498 3.81068 13.5627 3.82087 13.4754 3.82098ZM14.9379 1.97673C14.9083 1.97661 14.8788 1.98014 14.8501 1.98723L13.3899 2.33073C13.3177 2.34762 13.2521 2.38555 13.2014 2.4397C13.1508 2.49385 13.1173 2.5618 13.1053 2.63497C13.0933 2.70813 13.1032 2.78322 13.1338 2.85075C13.1644 2.91828 13.2144 2.97521 13.2774 3.01435C13.319 3.04065 13.3656 3.05829 13.4142 3.06621C13.4629 3.07414 13.5126 3.07218 13.5605 3.06048L15.0207 2.71698C15.1104 2.69612 15.1893 2.643 15.2423 2.56774C15.2953 2.49249 15.3188 2.40035 15.3083 2.30889C15.2978 2.21742 15.254 2.13302 15.1853 2.07177C15.1165 2.01051 15.0277 1.97668 14.9356 1.97673H14.9379Z" fill="#363636"/>
<path d="M10.0003 11.8214C10.1042 11.505 10.1894 11.1827 10.2553 10.8562C10.3978 9.65428 10.4774 8.44576 10.4938 7.23556C10.4956 7.14783 10.4666 7.06226 10.4117 6.99374C10.3569 6.92522 10.2798 6.87809 10.1938 6.86056L7.99109 6.40044C7.90535 6.3826 7.81608 6.39534 7.73875 6.43644C7.66142 6.47753 7.60091 6.5444 7.56772 6.62543C7.09864 7.74077 6.68808 8.87981 6.33772 10.0379C6.26822 10.3637 6.21813 10.6933 6.18772 11.0249C5.72477 11.1465 5.30481 11.3945 4.97484 11.7412C4.64488 12.0879 4.41795 12.5197 4.31947 12.9881L3.87509 15.1169C3.85479 15.2143 3.87396 15.3156 3.92839 15.3988C3.98281 15.482 4.06804 15.5402 4.16534 15.5606L5.63384 15.8669C5.682 15.8773 5.73174 15.878 5.78016 15.8689C5.82858 15.8598 5.8747 15.8412 5.91584 15.8141C5.99905 15.7594 6.05728 15.6741 6.07784 15.5767C6.12368 15.2967 6.26395 15.0407 6.47534 14.8514C6.61015 14.759 6.76394 14.6978 6.92545 14.6725C7.08696 14.6472 7.25208 14.6584 7.40872 14.7052C7.56162 14.7178 7.70963 14.7652 7.84147 14.8437C7.97331 14.9221 8.08552 15.0296 8.16956 15.158C8.25359 15.2864 8.30724 15.4322 8.32641 15.5844C8.34559 15.7366 8.32979 15.8912 8.28022 16.0364C8.26003 16.1337 8.27925 16.235 8.33366 16.3181C8.38808 16.4012 8.47325 16.4593 8.57047 16.4797L10.039 16.7864C10.0872 16.7965 10.1369 16.7969 10.1853 16.7878C10.2337 16.7786 10.2798 16.76 10.321 16.733C10.3622 16.706 10.3976 16.6712 10.4254 16.6305C10.4531 16.5898 10.4725 16.544 10.4826 16.4958L10.927 14.3666C11.0237 13.8981 10.9883 13.412 10.8247 12.9626C10.661 12.5131 10.3756 12.118 10.0003 11.8214Z" fill="#FFBD4A"/>
<path d="M9.57897 18.9902L8.11047 18.6835C8.06226 18.6734 8.01254 18.673 7.96415 18.6821C7.91576 18.6913 7.86966 18.7099 7.82846 18.7369C7.78727 18.7639 7.75179 18.7987 7.72406 18.8394C7.69633 18.8801 7.67689 18.9259 7.66684 18.9741C7.6205 19.2539 7.48016 19.5096 7.26897 19.699C7.13435 19.7917 6.98061 19.853 6.81911 19.8783C6.65762 19.9036 6.4925 19.8923 6.33597 19.8452C6.17361 19.8258 6.01771 19.7701 5.87978 19.6822C5.74185 19.5944 5.62542 19.4767 5.53909 19.3378C5.42068 19.0795 5.39422 18.7883 5.46409 18.5128C5.47414 18.4646 5.47459 18.4149 5.46543 18.3665C5.45626 18.3181 5.43765 18.272 5.41066 18.2308C5.38367 18.1896 5.34884 18.1542 5.30814 18.1264C5.26744 18.0987 5.22168 18.0793 5.17347 18.0692L3.70534 17.7628C3.6571 17.7527 3.60735 17.7522 3.55892 17.7614C3.51049 17.7705 3.46434 17.7891 3.4231 17.8161C3.38186 17.8431 3.34635 17.878 3.3186 17.9187C3.29084 17.9594 3.27138 18.0052 3.26134 18.0535L2.64859 20.9912C2.58783 21.2833 2.64554 21.5875 2.80904 21.837C2.97254 22.0865 3.22844 22.2609 3.52047 22.3217L7.92559 23.2416C8.00181 23.2575 8.07947 23.2656 8.15734 23.2656C8.41548 23.2651 8.66559 23.1758 8.86572 23.0128C9.06584 22.8497 9.20381 22.6228 9.25647 22.3701L9.86959 19.4335C9.88977 19.3362 9.8705 19.2348 9.81601 19.1517C9.76151 19.0686 9.67626 19.0105 9.57897 18.9902Z" fill="#FFBD4A"/>
<path d="M21.4426 18.5436L20.7556 15.6231C20.7329 15.5265 20.6728 15.4428 20.5884 15.3904C20.504 15.338 20.4024 15.3212 20.3056 15.3437L18.8454 15.6872C18.7487 15.71 18.665 15.7701 18.6127 15.8545C18.5603 15.9388 18.5435 16.0405 18.566 16.1372C18.6193 16.2811 18.639 16.4353 18.6237 16.5879C18.6084 16.7406 18.5585 16.8878 18.4777 17.0182C18.397 17.1487 18.2876 17.259 18.1577 17.3408C18.0279 17.4226 17.8812 17.4737 17.7286 17.4902C17.5732 17.5414 17.4082 17.557 17.2459 17.5357C17.0836 17.5145 16.9282 17.457 16.7911 17.3676C16.5751 17.1836 16.4284 16.9313 16.3753 16.6525C16.3525 16.5559 16.2923 16.4723 16.2079 16.42C16.1236 16.3677 16.0219 16.351 15.9253 16.3735L14.4654 16.717C14.3687 16.7397 14.285 16.7999 14.2327 16.8842C14.1803 16.9686 14.1635 17.0703 14.186 17.167L14.873 20.0871C14.9308 20.3338 15.0702 20.5538 15.2686 20.7114C15.467 20.8691 15.7128 20.9551 15.9661 20.9556C16.0535 20.9553 16.1406 20.9451 16.2256 20.9252L20.606 19.8947C20.896 19.8262 21.1469 19.6455 21.3037 19.3922C21.4606 19.1389 21.5105 18.8337 21.4426 18.5436Z" fill="#FFBD4A"/>
<path d="M15.6883 13.7332C15.6351 13.5893 15.6153 13.4352 15.6306 13.2826C15.6459 13.1299 15.6958 12.9828 15.7766 12.8524C15.8573 12.7219 15.9668 12.6116 16.0966 12.5299C16.2264 12.4481 16.3732 12.3971 16.5257 12.3806C16.6696 12.3274 16.8237 12.3077 16.9763 12.3231C17.1289 12.3384 17.276 12.3883 17.4064 12.4691C17.5368 12.5498 17.6471 12.6592 17.7289 12.789C17.8107 12.9188 17.8618 13.0655 17.8783 13.218C17.9011 13.3146 17.9612 13.3983 18.0456 13.4507C18.1299 13.5031 18.2316 13.5198 18.3283 13.4973L19.7886 13.1538C19.8852 13.1311 19.9689 13.071 20.0213 12.9866C20.0737 12.9022 20.0904 12.8005 20.0679 12.7038L19.5696 10.587C19.4593 10.1212 19.2216 9.69536 18.883 9.35706C18.5444 9.01876 18.1184 8.78137 17.6526 8.67146C17.613 8.34035 17.5538 8.0119 17.4752 7.68784C17.0967 6.53856 16.6586 5.40978 16.1627 4.30609C16.1274 4.22592 16.0652 4.16061 15.9869 4.1215C15.9085 4.08239 15.8189 4.07194 15.7337 4.09196L13.5433 4.60721C13.458 4.62727 13.3824 4.67659 13.3296 4.74661C13.2769 4.81662 13.2503 4.9029 13.2546 4.99046C13.3015 6.19977 13.4116 7.40579 13.5846 8.60359C13.6587 8.92843 13.752 9.24862 13.8639 9.56246C13.4961 9.8685 13.2206 10.2708 13.0683 10.7245C12.9159 11.1781 12.8928 11.6652 13.0014 12.1312L13.4994 14.2481C13.5222 14.3447 13.5823 14.4284 13.6667 14.4808C13.751 14.5332 13.8527 14.55 13.9494 14.5275L15.4093 14.184C15.5061 14.1611 15.5898 14.1009 15.6421 14.0163C15.6944 13.9318 15.711 13.83 15.6883 13.7332Z" fill="#FFBD4A"/>
<path d="M9.77995 18.4034C9.75476 18.4033 9.72964 18.4006 9.70495 18.3955C9.65674 18.3855 9.61098 18.3661 9.57028 18.3383C9.52958 18.3106 9.49475 18.2751 9.46776 18.2339C9.44077 18.1927 9.42216 18.1466 9.413 18.0982C9.40383 18.0499 9.40428 18.0001 9.41433 17.9519L9.67345 16.711L8.57208 16.4808C8.47486 16.4604 8.38969 16.4023 8.33528 16.3192C8.28086 16.2361 8.26164 16.1348 8.28183 16.0375C8.3314 15.8924 8.3472 15.7378 8.32802 15.5855C8.30885 15.4333 8.2552 15.2875 8.17117 15.1591C8.08713 15.0307 7.97493 14.9232 7.84308 14.8448C7.71124 14.7663 7.56323 14.7189 7.41033 14.7063C7.25372 14.6593 7.08856 14.648 6.92701 14.6733C6.76547 14.6986 6.61167 14.7599 6.47695 14.8525C6.26571 15.042 6.12547 15.2978 6.07945 15.5778C6.06937 15.626 6.04988 15.6718 6.02211 15.7125C5.99434 15.7531 5.95882 15.788 5.91759 15.8149C5.87635 15.8419 5.83022 15.8604 5.78181 15.8695C5.7334 15.8787 5.68367 15.8782 5.63545 15.868L4.16508 15.5628C4.11579 15.5539 4.06879 15.5352 4.02685 15.5078C3.98492 15.4804 3.94889 15.4448 3.92091 15.4033C3.89293 15.3618 3.87355 15.315 3.86392 15.2659C3.8543 15.2167 3.85462 15.1661 3.86486 15.1171C3.87511 15.0681 3.89508 15.0216 3.92359 14.9804C3.95209 14.9392 3.98856 14.9041 4.03084 14.8773C4.07312 14.8504 4.12036 14.8323 4.16975 14.824C4.21915 14.8157 4.26971 14.8174 4.31845 14.8289L5.4472 15.0644C5.55837 14.752 5.75289 14.4759 6.0097 14.266C6.22924 14.1024 6.48323 13.991 6.75233 13.9403C7.02143 13.8896 7.29854 13.901 7.56258 13.9735C8.00405 14.0244 8.40812 14.2459 8.68841 14.5907C8.96871 14.9356 9.103 15.3764 9.06258 15.8189L10.1925 16.0548C10.2897 16.0752 10.3748 16.1333 10.4293 16.2164C10.4837 16.2995 10.5029 16.4008 10.4827 16.498L10.1471 18.1061C10.1293 18.1902 10.0831 18.2657 10.0162 18.3198C9.94939 18.374 9.86597 18.4035 9.77995 18.4034Z" fill="#363636"/>
<path d="M6.68905 20.635C6.51859 20.634 6.34869 20.6154 6.18205 20.5795C5.91089 20.5406 5.65219 20.4404 5.42565 20.2863C5.19911 20.1323 5.01071 19.9286 4.8748 19.6908C4.72376 19.3957 4.65608 19.0649 4.67905 18.7342L3.55068 18.4983C3.4538 18.4775 3.3691 18.4192 3.31506 18.3361C3.26103 18.2531 3.24206 18.152 3.2623 18.055L3.53793 16.735C3.55822 16.6377 3.61636 16.5523 3.69955 16.4978C3.78275 16.4433 3.88419 16.4241 3.98155 16.4444C4.07892 16.4647 4.16424 16.5228 4.21874 16.606C4.27325 16.6892 4.29247 16.7907 4.27218 16.888L4.07305 17.8409L5.17443 18.0708C5.22264 18.0808 5.2684 18.1003 5.3091 18.128C5.3498 18.1557 5.38464 18.1912 5.41162 18.2324C5.43861 18.2736 5.45722 18.3197 5.46639 18.3681C5.47555 18.4165 5.4751 18.4662 5.46505 18.5144C5.39518 18.7899 5.42164 19.081 5.54005 19.3394C5.62654 19.4781 5.74309 19.5956 5.88108 19.6832C6.01907 19.7709 6.17498 19.8264 6.3373 19.8457C6.48247 19.8955 6.63709 19.9114 6.78938 19.8924C6.94166 19.8733 7.08758 19.8197 7.216 19.7357C7.34442 19.6517 7.45195 19.5394 7.53038 19.4075C7.60881 19.2756 7.65607 19.1275 7.66855 18.9745C7.6786 18.9263 7.69804 18.8806 7.72577 18.8399C7.7535 18.7992 7.78898 18.7643 7.83017 18.7373C7.87137 18.7104 7.91748 18.6917 7.96586 18.6826C8.01425 18.6734 8.06397 18.6739 8.11218 18.6839L9.58068 18.9907C9.63011 18.9994 9.67729 19.018 9.71941 19.0453C9.76153 19.0726 9.79773 19.1081 9.82587 19.1497C9.85401 19.1913 9.87352 19.2381 9.88324 19.2874C9.89295 19.3366 9.89268 19.3873 9.88243 19.4365C9.87218 19.4856 9.85217 19.5322 9.82359 19.5735C9.795 19.6147 9.75841 19.6498 9.716 19.6767C9.67359 19.7036 9.62622 19.7217 9.57669 19.7299C9.52716 19.7381 9.47649 19.7363 9.42768 19.7245L8.2978 19.4887C8.18843 19.8272 7.9729 20.1216 7.68313 20.3281C7.39337 20.5345 7.04479 20.6422 6.68905 20.635Z" fill="#363636"/>
<path d="M20.0568 14.667C19.9723 14.6668 19.8904 14.6382 19.8243 14.5858C19.7581 14.5333 19.7116 14.46 19.6923 14.3778L19.4249 13.239L18.3299 13.4966C18.2332 13.5191 18.1315 13.5023 18.0471 13.4499C17.9628 13.3976 17.9026 13.3139 17.8799 13.2172C17.8634 13.0647 17.8123 12.918 17.7305 12.7882C17.6487 12.6585 17.5384 12.549 17.408 12.4683C17.2776 12.3876 17.1305 12.3376 16.9779 12.3223C16.8252 12.307 16.6711 12.3266 16.5273 12.3798C16.3748 12.3963 16.2281 12.4474 16.0983 12.5291C15.9685 12.6108 15.8591 12.7211 15.7784 12.8515C15.6976 12.9819 15.6477 13.129 15.6324 13.2816C15.617 13.4342 15.6367 13.5882 15.6899 13.7321C15.7124 13.8287 15.6957 13.9304 15.6434 14.0147C15.5911 14.0991 15.5075 14.1593 15.4109 14.1821L13.9506 14.5256C13.9027 14.5369 13.853 14.5386 13.8044 14.5307C13.7558 14.5227 13.7092 14.5053 13.6674 14.4794C13.6255 14.4535 13.5891 14.4195 13.5604 14.3796C13.5316 14.3396 13.511 14.2943 13.4997 14.2464C13.4884 14.1985 13.4867 14.1488 13.4946 14.1002C13.5026 14.0515 13.52 14.005 13.5459 13.9631C13.5718 13.9212 13.6058 13.8849 13.6457 13.8561C13.6857 13.8273 13.731 13.8067 13.7789 13.7955L14.9039 13.533C14.8523 13.0915 14.9755 12.6474 15.247 12.2955C15.5185 11.9436 15.9169 11.7118 16.357 11.6497C16.7787 11.5093 17.2386 11.5393 17.6384 11.7332C18.0383 11.9272 18.3466 12.2697 18.4975 12.6877L19.6225 12.4233C19.7192 12.4008 19.8209 12.4176 19.9053 12.47C19.9896 12.5224 20.0498 12.6061 20.0725 12.7027L20.4261 14.2068C20.4486 14.3035 20.4319 14.4052 20.3795 14.4896C20.3271 14.5739 20.2434 14.6341 20.1468 14.6568C20.1173 14.6636 20.0871 14.667 20.0568 14.667Z" fill="#363636"/>
<path d="M17.3509 18.2885C16.9872 18.2963 16.6312 18.1834 16.3384 17.9675C16.0767 17.7641 15.8754 17.4931 15.7564 17.1838L14.6344 17.4463C14.5375 17.4686 14.4357 17.4521 14.3509 17.4001C14.309 17.3742 14.2726 17.3402 14.2439 17.3002C14.2151 17.2602 14.1945 17.2149 14.1833 17.1669L13.86 15.7929C13.8373 15.696 13.854 15.5941 13.9064 15.5095C13.9588 15.425 14.0427 15.3647 14.1396 15.3419C14.2364 15.3192 14.3384 15.3359 14.4229 15.3883C14.5075 15.4408 14.5678 15.5246 14.5905 15.6215L14.8275 16.6306L15.9225 16.3726C16.0192 16.3501 16.1208 16.3669 16.2052 16.4192C16.2895 16.4714 16.3497 16.555 16.3725 16.6516C16.4256 16.9304 16.5724 17.1827 16.7884 17.3668C16.9256 17.456 17.081 17.5133 17.2432 17.5345C17.4055 17.5557 17.5704 17.5403 17.7259 17.4894C17.8785 17.4729 18.0253 17.4219 18.1551 17.3401C18.285 17.2583 18.3944 17.148 18.4752 17.0175C18.5559 16.887 18.6059 16.7398 18.6211 16.5871C18.6364 16.4344 18.6166 16.2803 18.5633 16.1364C18.5408 16.0397 18.5575 15.938 18.6099 15.8536C18.6623 15.7693 18.746 15.7091 18.8426 15.6864L20.3029 15.3429C20.3997 15.3201 20.5016 15.3367 20.5862 15.3891C20.6707 15.4414 20.7311 15.5253 20.7538 15.6221C20.7766 15.7189 20.76 15.8208 20.7076 15.9054C20.6553 15.9899 20.5715 16.0502 20.4746 16.073L19.3496 16.3355C19.4011 16.777 19.2779 17.2211 19.0063 17.573C18.7347 17.9249 18.3363 18.1567 17.8961 18.2188C17.7177 18.2629 17.5347 18.2863 17.3509 18.2885Z" fill="#363636"/>
</svg>