<svg width="22" height="24" viewBox="0 0 22 24" fill="none" xmlns="http://www.w3.org/2000/svg">
<path d="M18.3335 14.1002H17.646V6.4002C17.646 5.4874 17.0712 4.709 16.271 4.41991V4.3002C16.271 3.1424 15.3456 2.2002 14.2085 2.2002H8.7085C7.57137 2.2002 6.646 3.1424 6.646 4.3002V7.42711L2.4887 11.3772C2.07068 11.7748 1.8335 12.3306 1.8335 12.913V19.0002C1.8335 20.1601 2.75682 21.1002 3.896 21.1002H10.0835C11.2227 21.1002 12.146 20.1601 12.146 19.0002V12.913C12.146 12.3306 11.9088 11.7748 11.4908 11.3779L7.3335 7.42711V4.3002C7.3335 3.5281 7.95017 2.9002 8.7085 2.9002H14.2085C14.9668 2.9002 15.5835 3.5281 15.5835 4.3002H14.2085C13.0714 4.3002 12.146 5.2424 12.146 6.4002C12.146 7.55799 13.0714 8.5002 14.2085 8.5002C15.3456 8.5002 16.271 7.55799 16.271 6.4002V5.18851C16.6821 5.43071 16.9585 5.88288 16.9585 6.4002V14.1002H16.271C15.8915 14.1002 15.5835 14.4138 15.5835 14.8002V17.6002C15.5835 17.9866 15.8915 18.3002 16.271 18.3002H18.3335C18.713 18.3002 19.021 17.9866 19.021 17.6002V14.8002C19.021 14.4138 18.713 14.1002 18.3335 14.1002ZM15.5835 6.4002C15.5835 7.17231 14.9668 7.80019 14.2085 7.80019C13.4502 7.80019 12.8335 7.17231 12.8335 6.4002C12.8335 5.62808 13.4502 5.0002 14.2085 5.0002H15.5835V6.4002ZM4.5835 19.0002C4.5835 19.3866 4.2755 19.7002 3.896 19.7002C3.5165 19.7002 3.2085 19.3866 3.2085 19.0002C3.2085 18.6138 3.5165 18.3002 3.896 18.3002C4.2755 18.3002 4.5835 18.6138 4.5835 19.0002ZM6.646 19.0002C6.646 19.3866 6.338 19.7002 5.9585 19.7002C5.579 19.7002 5.271 19.3866 5.271 19.0002C5.271 18.6138 5.579 18.3002 5.9585 18.3002C6.338 18.3002 6.646 18.6138 6.646 19.0002ZM8.7085 19.0002C8.7085 19.3866 8.4005 19.7002 8.021 19.7002C7.6415 19.7002 7.3335 19.3866 7.3335 19.0002C7.3335 18.6138 7.6415 18.3002 8.021 18.3002C8.4005 18.3002 8.7085 18.6138 8.7085 19.0002ZM10.771 19.0002C10.771 19.3866 10.463 19.7002 10.0835 19.7002C9.704 19.7002 9.396 19.3866 9.396 19.0002C9.396 18.6138 9.704 18.3002 10.0835 18.3002C10.463 18.3002 10.771 18.6138 10.771 19.0002ZM3.2085 16.2002C3.2085 15.8138 3.5165 15.5002 3.896 15.5002C4.2755 15.5002 4.5835 15.8138 4.5835 16.2002C4.5835 16.5866 4.2755 16.9002 3.896 16.9002C3.5165 16.9002 3.2085 16.5866 3.2085 16.2002ZM5.271 16.2002C5.271 15.8138 5.579 15.5002 5.9585 15.5002C6.338 15.5002 6.646 15.8138 6.646 16.2002C6.646 16.5866 6.338 16.9002 5.9585 16.9002C5.579 16.9002 5.271 16.5866 5.271 16.2002ZM7.3335 16.2002C7.3335 15.8138 7.6415 15.5002 8.021 15.5002C8.4005 15.5002 8.7085 15.8138 8.7085 16.2002C8.7085 16.5866 8.4005 16.9002 8.021 16.9002C7.6415 16.9002 7.3335 16.5866 7.3335 16.2002ZM9.396 16.2002C9.396 15.8138 9.704 15.5002 10.0835 15.5002C10.463 15.5002 10.771 15.8138 10.771 16.2002C10.771 16.5866 10.463 16.9002 10.0835 16.9002C9.704 16.9002 9.396 16.5866 9.396 16.2002ZM4.92725 18.3002C4.54775 18.3002 4.23975 17.9866 4.23975 17.6002C4.23975 17.2138 4.54775 16.9002 4.92725 16.9002C5.30675 16.9002 5.61475 17.2138 5.61475 17.6002C5.61475 17.9866 5.30675 18.3002 4.92725 18.3002ZM6.98975 18.3002C6.61025 18.3002 6.30225 17.9866 6.30225 17.6002C6.30225 17.2138 6.61025 16.9002 6.98975 16.9002C7.36925 16.9002 7.67725 17.2138 7.67725 17.6002C7.67725 17.9866 7.36925 18.3002 6.98975 18.3002ZM9.05225 16.9002C9.43175 16.9002 9.73975 17.2138 9.73975 17.6002C9.73975 17.9866 9.43175 18.3002 9.05225 18.3002C8.67275 18.3002 8.36475 17.9866 8.36475 17.6002C8.36475 17.2138 8.67275 16.9002 9.05225 16.9002Z" fill="#AD712C"/>
</svg>