<svg width="21" height="21" viewBox="0 0 21 21" fill="none" xmlns="http://www.w3.org/2000/svg">
<path d="M18.375 10.0625C18.378 11.2174 18.1082 12.3567 17.5875 13.3875C16.9701 14.6228 16.021 15.6618 14.8465 16.3881C13.672 17.1145 12.3185 17.4995 10.9375 17.5C9.78262 17.503 8.64335 17.2332 7.6125 16.7125L2.625 18.375L4.2875 13.3875C3.76681 12.3567 3.49699 11.2174 3.5 10.0625C3.50053 8.68156 3.88554 7.32802 4.61188 6.15351C5.33822 4.97899 6.37722 4.0299 7.6125 3.41253C8.64335 2.89184 9.78262 2.62201 10.9375 2.62502H11.375C13.1988 2.72564 14.9214 3.49544 16.213 4.78703C17.5046 6.07861 18.2744 7.80122 18.375 9.62503V10.0625Z" stroke="white" stroke-width="2" stroke-linecap="round" stroke-linejoin="round"/>
</svg>