<svg width="23" height="18" viewBox="0 0 23 18" fill="none" xmlns="http://www.w3.org/2000/svg">
<path fill-rule="evenodd" clip-rule="evenodd" d="M2.03125 2H20.0312V16H2.03125V2ZM0.03125 2C0.03125 0.89543 0.926681 0 2.03125 0H20.0312C21.1358 0 22.0312 0.895431 22.0312 2V16C22.0312 17.1046 21.1358 18 20.0312 18H2.03125C0.92668 18 0.03125 17.1046 0.03125 16V2ZM18.0312 6C18.0312 7.10457 17.1358 8 16.0312 8C14.9267 8 14.0312 7.10457 14.0312 6C14.0312 4.89543 14.9267 4 16.0312 4C17.1358 4 18.0312 4.89543 18.0312 6ZM18.0312 14H4.03125V9.625L6.44654 7.5871C6.84094 7.25433 7.42378 7.2763 7.792 7.63783L10.4736 10.2707C10.8013 10.5924 11.306 10.6496 11.6973 10.4095L13.5209 9.29048C13.8912 9.06322 14.3659 9.10113 14.6954 9.38428L18.0312 12.25V14Z" fill="white"/>
</svg>