<svg width="367" height="320" viewBox="0 0 367 320" fill="none" xmlns="http://www.w3.org/2000/svg">
<g clip-path="url(#clip0_1519_2063)">
<path d="M60.8721 111.398C60.0135 111.484 59.1494 111.505 58.2877 111.458C58.1408 111.442 57.9935 111.484 57.8774 111.576C57.7614 111.667 57.6859 111.801 57.6673 111.947L56.0188 124.311C55.892 125.208 55.5245 126.055 54.9553 126.76C54.486 127.322 54.1371 127.973 53.9304 128.675C53.7237 129.377 53.6634 130.114 53.7534 130.84V151.842C53.7534 151.842 53.6471 154.642 55.799 154.642C58.3745 154.965 60.9803 154.965 63.5558 154.642C63.5558 154.642 65.2787 154.316 65.2787 151.732V131.053C65.4102 130.331 65.3831 129.59 65.1995 128.88C65.0158 128.17 64.68 127.508 64.2152 126.941C63.665 126.233 63.3094 125.393 63.1836 124.506L61.4712 111.884C61.4518 111.742 61.379 111.612 61.2678 111.522C61.1565 111.432 61.015 111.388 60.8721 111.398Z" fill="white"/>
<path d="M59.67 155.238C58.3683 155.238 57.0679 155.157 55.7763 154.996C55.4877 155.003 55.2008 154.95 54.9336 154.841C54.6665 154.731 54.4248 154.568 54.2238 154.361C53.3481 153.451 53.3968 151.894 53.3993 151.828L53.3991 130.861C53.3077 130.091 53.3744 129.309 53.5953 128.565C53.8161 127.821 54.1863 127.129 54.6833 126.533C55.2103 125.878 55.5504 125.093 55.6678 124.261L57.316 111.9C57.3482 111.663 57.4716 111.447 57.6602 111.298C57.8488 111.15 58.0877 111.081 58.3264 111.106C59.1635 111.15 60.0028 111.13 60.8368 111.045L60.8467 111.044C61.0794 111.028 61.3099 111.1 61.4912 111.247C61.6724 111.394 61.791 111.604 61.8226 111.835L63.535 124.458C63.6527 125.284 63.9837 126.065 64.4952 126.723C64.988 127.325 65.3447 128.027 65.5412 128.779C65.7376 129.532 65.7691 130.318 65.6334 131.084V151.732C65.6334 154.576 63.642 154.986 63.6219 154.99C62.311 155.155 60.9912 155.238 59.67 155.238ZM58.2396 111.811C58.1869 111.808 58.1352 111.825 58.0944 111.859C58.0536 111.892 58.0268 111.94 58.0191 111.992L56.3703 124.358C56.2347 125.319 55.8411 126.227 55.2313 126.983C54.793 127.508 54.4669 128.117 54.2733 128.773C54.0796 129.429 54.0225 130.117 54.1054 130.796L54.1081 130.84V151.841C54.1074 151.868 54.0698 153.181 54.7362 153.871C54.8741 154.011 55.0401 154.121 55.2232 154.192C55.4064 154.264 55.6027 154.297 55.7992 154.287L55.8434 154.29C58.3895 154.61 60.9656 154.61 63.5117 154.29C63.5454 154.282 64.9244 153.967 64.9244 151.732L64.9301 130.989C65.0528 130.318 65.028 129.629 64.8572 128.968C64.6864 128.308 64.3738 127.693 63.9411 127.165C63.3505 126.407 62.9684 125.507 62.8328 124.555L61.1201 111.931C61.1126 111.879 61.086 111.832 61.0456 111.799C61.0052 111.766 60.9539 111.749 60.9016 111.751C60.0268 111.839 59.1467 111.859 58.2688 111.812C58.2591 111.811 58.2494 111.811 58.2396 111.811Z" fill="#3F3D56"/>
<path d="M58.2699 131.216H60.8827C61.9217 131.216 62.9181 131.628 63.6527 132.363C64.3874 133.098 64.8001 134.094 64.8001 135.133V144.962C64.8001 146 64.3874 146.997 63.6527 147.731C62.9181 148.466 61.9217 148.878 60.8827 148.878H58.2699C57.231 148.878 56.2346 148.466 55.4999 147.731C54.7653 146.997 54.3525 146 54.3525 144.962V135.133C54.3525 134.618 54.4539 134.109 54.6507 133.634C54.8476 133.158 55.1362 132.727 55.4999 132.363C55.8637 131.999 56.2955 131.711 56.7708 131.514C57.2461 131.317 57.7555 131.216 58.2699 131.216Z" fill="#E27329"/>
<path d="M10.2349 311.744H18.7532L22.8056 278.894L10.2334 278.894L10.2349 311.744Z" fill="#9F616A"/>
<path d="M8.0625 308.964L24.838 308.963H24.8387C27.674 308.963 30.3931 310.089 32.3979 312.094C34.4028 314.098 35.5292 316.817 35.5294 319.652V319.999L8.063 320L8.0625 308.964Z" fill="#2F2E41"/>
<path d="M4.8793 194.409C4.8793 194.409 1.18755 198.582 7.30052 214.846L6.22377 304.028L26.034 303.642L30.3885 260.139L38.3167 196.657L4.8793 194.409Z" fill="#2F2E41"/>
<path d="M45.1115 206.739L44.8946 206.706C19.5519 202.841 0.427785 199.137 0.237569 199.1L0 199.054L6.64341 182.898C6.59093 181.21 5.15287 133.803 7.90579 120.183C10.5708 106.998 23.1327 104.837 24.5642 104.634L26.0016 99.8721L44.1609 109.32L47.328 120.218L47.9713 150.088L45.1115 206.739Z" fill="#3F3D56"/>
<path d="M56.0488 145.261C55.2311 145.261 54.4222 145.43 53.6729 145.757C52.9237 146.085 52.2504 146.564 51.6953 147.164H21.1725L9.99219 149.544L11.8278 163.7L51.5995 155.148C52.2579 155.891 53.0922 156.458 54.0261 156.796C54.96 157.134 55.9637 157.233 56.9457 157.084C57.9277 156.935 58.8566 156.542 59.6476 155.941C60.4387 155.341 61.0666 154.551 61.4742 153.646C61.8818 152.74 62.0559 151.747 61.9808 150.757C61.9057 149.766 61.5837 148.811 61.0442 147.977C60.5047 147.143 59.7648 146.458 58.8922 145.983C58.0196 145.509 57.0421 145.26 56.0488 145.261Z" fill="#9F616A"/>
<path d="M56.3136 94.5214C60.2105 87.3939 57.5906 78.4574 50.4619 74.5611C43.3332 70.6648 34.3952 73.2843 30.4983 80.4118C26.6014 87.5394 29.2213 96.4759 36.35 100.372C43.4787 104.268 52.4168 101.649 56.3136 94.5214Z" fill="#9F616A"/>
<path d="M29.5708 75.7077L28.8577 74.2725L32.4461 72.49C32.4461 72.49 36.4046 66.05 43.5678 67.8598C50.731 69.6695 53.9538 70.7527 53.9538 70.7527L57.5331 72.5534L55.7367 74.3405L58.9594 75.4236L56.8064 76.4931L59.3115 77.9328L57.9629 85.3129C57.9629 85.3129 55.7231 79.7154 51.4171 81.8545C47.111 83.9935 39.2346 80.7487 39.2346 80.7487L32.3918 93.9896C32.3918 93.9896 30.9801 89.348 28.4631 90.5857C28.4631 90.5857 22.033 80.3469 29.5708 75.7077Z" fill="#2F2E41"/>
<path d="M12.0234 166.353L8.5328 155.972L7.68848 121.367L9.17572 116.457C9.71104 114.69 10.5977 113.049 11.7825 111.633C12.9673 110.216 14.4259 109.054 16.0708 108.215C17.7158 107.375 19.5133 106.877 21.3556 106.749C23.1979 106.621 25.047 106.866 26.7922 107.47C28.5375 108.073 30.1428 109.023 31.5121 110.262C32.8814 111.501 33.9865 113.004 34.7611 114.68C35.5357 116.356 35.9638 118.171 36.0199 120.017C36.076 121.862 35.7589 123.7 35.0875 125.42L27.116 145.844L27.5212 146.631L44.7915 146.491L50.9262 157.531L12.0234 166.353Z" fill="#3F3D56"/>
<path d="M184.815 162.088C185.46 161.654 186.002 161.084 186.402 160.418C186.802 159.752 187.052 159.006 187.133 158.233C187.214 157.461 187.124 156.68 186.87 155.945C186.617 155.211 186.205 154.541 185.665 153.983L194.178 137.123L184.427 138.254L177.838 154.091C176.96 155.061 176.469 156.319 176.457 157.627C176.445 158.935 176.914 160.202 177.774 161.188C178.634 162.174 179.826 162.81 181.124 162.975C182.422 163.141 183.735 162.825 184.815 162.088Z" fill="#FFB7B7"/>
<path d="M253.088 281.512L245.415 281.511L241.766 251.924L253.089 251.925L253.088 281.512Z" fill="#FFB7B7"/>
<path d="M255.044 288.947L230.307 288.947V288.634C230.307 286.08 231.321 283.632 233.127 281.827C234.933 280.021 237.382 279.007 239.935 279.007H239.936L255.045 279.007L255.044 288.947Z" fill="#2F2E41"/>
<path d="M211.161 281.512L203.489 281.511L199.839 251.924L211.162 251.925L211.161 281.512Z" fill="#FFB7B7"/>
<path d="M211.24 288.947L186.502 288.947V288.634C186.502 286.08 187.517 283.632 189.322 281.827C191.128 280.021 193.577 279.007 196.131 279.007H196.131L211.24 279.007L211.24 288.947Z" fill="#2F2E41"/>
<path d="M210.532 156.55L203.023 173.847L196.828 273.268L212.473 272.642L216.745 225.248L229.926 183.035L237.504 230.095L240.633 271.39L253.578 271.951L258.737 156.55H210.532Z" fill="#2F2E41"/>
<path d="M248.069 71.1973L226.304 71.7416L213.526 78.3003L212.825 126.689L204.855 160.097C204.855 160.097 254.649 163.524 261.533 158.518L253.398 120.352L264.309 79.1046L248.069 71.1973Z" fill="#E27329"/>
<path d="M216.887 79.1025L214.861 77.7344C214.861 77.7344 206.467 80.2498 203.986 91.4407C203.986 91.4407 202.087 97.0552 201.254 100.915C200.299 105.343 179.2 146.012 179.2 146.012L191.832 149.635L214.991 112.189L216.887 79.1025Z" fill="#E27329"/>
<path d="M263.968 168.293C263.468 167.698 263.105 167.001 262.904 166.25C262.703 165.5 262.669 164.714 262.804 163.949C262.939 163.184 263.241 162.458 263.687 161.822C264.133 161.186 264.714 160.655 265.387 160.268L261.854 141.715L270.915 145.49L272.881 162.53C273.457 163.704 273.582 165.049 273.233 166.31C272.883 167.57 272.083 168.659 270.985 169.369C269.886 170.08 268.565 170.362 267.272 170.164C265.979 169.966 264.803 169.3 263.968 168.293Z" fill="#FFB7B7"/>
<path d="M261.034 79.6822L263.359 78.9258C263.359 78.9258 270.733 83.658 270.032 95.099C270.032 95.099 270.308 101.019 270.044 104.959C269.741 109.479 273.799 154.388 273.799 154.388H260.657L255.025 113.719L261.034 79.6822Z" fill="#E27329"/>
<path d="M253.412 50.8967C253.412 53.8803 252.527 56.7968 250.869 59.2776C249.211 61.7583 246.855 63.6918 244.098 64.8336C241.341 65.9753 238.307 66.2741 235.38 65.692C232.454 65.1099 229.765 63.6732 227.655 61.5635C225.545 59.4538 224.108 56.7659 223.526 53.8397C222.944 50.9135 223.243 47.8803 224.385 45.1239C225.527 42.3674 227.461 40.0115 229.942 38.3539C232.423 36.6963 235.34 35.8116 238.324 35.8116C242.315 35.8016 246.147 37.3774 248.977 40.1923C251.806 43.0072 253.402 46.8307 253.412 50.8215C253.412 50.8466 253.412 50.8716 253.412 50.8967Z" fill="#FFB7B7"/>
<path d="M223.286 30.6343C225.054 26.8344 228.474 27.5857 231.465 28.8737C235.253 28.0336 238.856 25.5185 242.937 27.0059C246.958 32.8523 260.456 31.1322 257.584 40.6502C257.58 42.931 261.876 41.6034 261.126 45.3387C263.402 52.5273 252.912 66.1413 246.89 63.2744C248.379 60.5452 251.781 54.3462 246.621 53.7314C235.52 64.0586 245.476 34.066 231.528 42.7883C226.909 47.0141 220.587 34.8611 223.286 30.6343Z" fill="#2F2E41"/>
<path d="M266.609 169.797C267.327 169.941 268.069 169.927 268.781 169.753C269.493 169.58 270.159 169.253 270.731 168.795C271.303 168.337 271.768 167.759 272.093 167.102C272.417 166.445 272.594 165.724 272.61 164.992L310.493 129.34L301.969 122.542L267.347 159.814C266.114 159.869 264.944 160.373 264.059 161.233C263.173 162.093 262.634 163.247 262.543 164.478C262.452 165.708 262.816 166.929 263.565 167.91C264.314 168.89 265.397 169.562 266.609 169.797Z" fill="#9F616A"/>
<path d="M305.126 135.103L297.756 126.467C297.546 126.222 297.392 125.934 297.303 125.623C297.215 125.312 297.195 124.986 297.244 124.667C297.293 124.347 297.41 124.043 297.588 123.773C297.765 123.503 297.999 123.274 298.273 123.103L307.868 117.097C309.131 116.032 310.766 115.51 312.413 115.648C314.061 115.785 315.586 116.57 316.656 117.83C317.725 119.091 318.251 120.724 318.118 122.371C317.984 124.019 317.203 125.546 315.946 126.619L308.53 135.122C308.318 135.365 308.055 135.56 307.761 135.693C307.467 135.826 307.147 135.894 306.824 135.892C306.501 135.89 306.182 135.819 305.889 135.683C305.596 135.547 305.336 135.349 305.126 135.103Z" fill="#CBCBCB"/>
<path d="M285.307 311.023L276.044 311.022L271.638 275.302L285.308 275.302L285.307 311.023Z" fill="#9F616A"/>
<path d="M287.669 320L257.803 319.998V319.621C257.803 316.538 259.028 313.582 261.208 311.402C263.388 309.223 266.344 307.998 269.428 307.998H269.428L287.67 307.999L287.669 320Z" fill="#2F2E41"/>
<path d="M359.347 311.023L350.084 311.022L345.678 275.302L359.349 275.302L359.347 311.023Z" fill="#9F616A"/>
<path d="M361.709 320L331.843 319.998V319.621C331.843 316.538 333.068 313.582 335.248 311.402C337.428 309.223 340.385 307.998 343.468 307.998H343.468L361.71 307.999L361.709 320Z" fill="#2F2E41"/>
<path d="M334.432 154.038L343.769 119.548L331.657 112.741H314.75L308.174 119.775C308.174 119.775 297.188 127.418 299.847 135.886L304.137 155.173L297.576 185.805L264.519 231.64L256.694 276.662L287.497 284.736L320.806 219.16L336.956 291.77L367 290.259L356.647 202.22C356.647 202.22 353.696 175.4 338.226 158.654L334.432 154.038Z" fill="#2F2E41"/>
<path d="M353.714 184.554C354.235 184.038 354.636 183.414 354.89 182.727C355.143 182.039 355.243 181.304 355.181 180.574C355.12 179.844 354.9 179.136 354.535 178.5C354.17 177.864 353.671 177.316 353.072 176.894L345.827 128.029L335.43 131.312L345.838 178.374C345.196 179.427 344.963 180.68 345.182 181.894C345.402 183.108 346.06 184.2 347.031 184.961C348.001 185.723 349.218 186.103 350.45 186.027C351.682 185.952 352.843 185.428 353.714 184.554Z" fill="#9F616A"/>
<path d="M347.617 135.698L336.338 136.999C336.017 137.036 335.692 137.003 335.384 136.903C335.077 136.803 334.795 136.638 334.557 136.419C334.32 136.201 334.132 135.933 334.007 135.635C333.882 135.338 333.823 135.016 333.833 134.693L334.199 123.381C334.019 121.738 334.498 120.091 335.53 118.801C336.563 117.511 338.066 116.683 339.708 116.498C341.351 116.314 342.999 116.788 344.293 117.817C345.586 118.846 346.419 120.346 346.608 121.987L349.531 132.884C349.615 133.196 349.63 133.522 349.577 133.84C349.523 134.159 349.401 134.462 349.219 134.729C349.037 134.996 348.8 135.221 348.524 135.388C348.248 135.556 347.938 135.661 347.617 135.698Z" fill="#CBCBCB"/>
<path d="M304.297 102.933V88.4015C304.297 83.237 306.349 78.284 310.001 74.6322C313.654 70.9803 318.607 68.9287 323.773 68.9287C328.938 68.9287 333.892 70.9803 337.544 74.6322C341.197 78.284 343.249 83.237 343.249 88.4015V102.933C343.248 103.627 342.972 104.292 342.482 104.782C341.991 105.273 341.326 105.548 340.633 105.549H306.913C306.219 105.548 305.554 105.273 305.064 104.782C304.574 104.292 304.298 103.627 304.297 102.933Z" fill="#2F2E41"/>
<path d="M326.619 103.461C333.539 99.6792 336.082 91.0047 332.299 84.0861C328.517 77.1675 319.841 74.6248 312.921 78.4069C306.001 82.1889 303.458 90.8635 307.241 97.7821C311.023 104.701 319.699 107.243 326.619 103.461Z" fill="#9F616A"/>
<path d="M299.689 89.564C299.694 85.48 301.319 81.5647 304.207 78.6769C307.095 75.7891 311.011 74.1648 315.096 74.1602H318.003C322.087 74.1648 326.003 75.7892 328.892 78.6769C331.78 81.5647 333.404 85.4801 333.409 89.564V89.8546H327.266L325.171 83.9885L324.752 89.8546H321.577L320.52 86.8949L320.308 89.8546H299.689V89.564Z" fill="#2F2E41"/>
<path d="M318.365 107.182C318.077 106.792 317.905 106.328 317.869 105.844C317.832 105.36 317.934 104.875 318.161 104.446C321.241 98.5882 325.554 87.7637 319.829 81.0881L319.418 80.6084H336.038V105.557L320.94 108.22C320.787 108.247 320.632 108.261 320.477 108.261C320.065 108.261 319.658 108.163 319.291 107.976C318.924 107.788 318.607 107.516 318.365 107.182Z" fill="#2F2E41"/>
<path d="M165.606 120.468C165.396 120.685 165.202 120.918 165.028 121.165L137.948 120.502L134.789 114.73L125.454 118.359L130.054 129.12C130.425 129.989 131.069 130.715 131.888 131.187C132.707 131.66 133.657 131.854 134.596 131.741L165.191 128.045C165.912 128.959 166.895 129.631 168.008 129.972C169.121 130.314 170.312 130.308 171.422 129.957C172.532 129.605 173.508 128.924 174.222 128.004C174.935 127.084 175.351 125.968 175.415 124.806C175.479 123.643 175.187 122.489 174.579 121.497C173.97 120.504 173.074 119.72 172.009 119.249C170.944 118.778 169.761 118.643 168.618 118.861C167.474 119.078 166.424 119.639 165.606 120.468Z" fill="#FFB7B7"/>
<path d="M77.3296 284.898H86.2336L90.4694 250.56L77.3281 250.56L77.3296 284.898Z" fill="#FFB7B7"/>
<path d="M75.0586 281.992L92.5938 281.991H92.5945C95.5582 281.991 98.4004 283.169 100.496 285.264C102.592 287.359 103.769 290.201 103.769 293.164V293.527L75.0591 293.528L75.0586 281.992Z" fill="#2F2E41"/>
<path d="M158.182 284.7L166.37 281.203L156.774 247.961L144.689 253.123L158.182 284.7Z" fill="#FFB7B7"/>
<path d="M154.951 282.92L171.076 276.032L171.077 276.032C173.803 274.868 176.879 274.834 179.629 275.938C182.38 277.042 184.579 279.192 185.743 281.917L185.886 282.251L159.484 293.528L154.951 282.92Z" fill="#2F2E41"/>
<path d="M120.609 127.906L121.253 138.338L102.433 140.352L82.7393 142.459L88.5355 126.618L120.609 127.906Z" fill="#FFB7B7"/>
<path d="M121.271 131.649C121.058 131.565 99.7998 123.297 86.7423 130.058L86.4212 130.224L83.8163 117.405L82.332 89.8434L91.9904 85.2804L94.6497 79.3246L112.763 78.2529L116.485 83.3567L129.158 87.5093L121.584 131.773L121.271 131.649Z" fill="#E4E4E4"/>
<path d="M121.937 106.772L124.177 89.1706L129.278 87.6182L129.364 87.6499C129.482 87.6931 132.255 88.7541 133.013 92.5918C133.742 96.2754 139.228 119.198 139.284 119.429L139.339 119.659L126.448 124.815L121.937 106.772Z" fill="#E4E4E4"/>
<path d="M151.55 278.666L168.709 275.147L141.284 199.483L131.898 173.675C131.898 173.675 125.944 152.983 123.255 144.975L121.632 134.23L83.2069 138.483C83.2069 138.483 72.475 154.241 75.7353 179.926L74.2607 276.466L91.4198 277.346L105.792 179.981L131.018 233.356C131.018 233.356 138.968 256.133 144.657 261.07L151.55 278.666Z" fill="#2F2E41"/>
<path d="M98.6154 142.066C98.3133 142.059 98.011 142.076 97.7114 142.116L79.7856 121.811L81.8708 115.571L72.8626 111.193L68.0973 121.882C67.7123 122.746 67.6179 123.711 67.8282 124.633C68.0385 125.554 68.5421 126.383 69.2636 126.994L92.7756 146.913C92.5963 148.063 92.7715 149.241 93.2779 150.289C93.7843 151.338 94.5979 152.207 95.6104 152.781C96.623 153.356 97.7865 153.609 98.9463 153.506C100.106 153.404 101.207 152.95 102.103 152.207C102.999 151.463 103.647 150.465 103.961 149.344C104.276 148.223 104.241 147.033 103.863 145.932C103.484 144.831 102.779 143.872 101.842 143.181C100.905 142.49 99.7792 142.102 98.6154 142.066Z" fill="#FFB7B7"/>
<path d="M71.2402 114.201L78.2482 94.2427C79.0357 91.89 80.0227 90.4607 81.1816 89.9943C81.4099 89.8916 81.657 89.8374 81.9073 89.835C82.1576 89.8327 82.4057 89.8823 82.6359 89.9807L85.7783 93.9501L88.6948 106.2L81.2171 123.787L71.2402 114.201Z" fill="#E4E4E4"/>
<path d="M117.626 74.1235H86.8615C86.2287 74.1228 85.622 73.8711 85.1745 73.4237C84.727 72.9763 84.4753 72.3697 84.4746 71.7369V58.4784C84.4746 53.7664 86.3467 49.2474 89.6791 45.9156C93.0115 42.5837 97.5312 40.7119 102.244 40.7119C106.957 40.7119 111.476 42.5837 114.809 45.9156C118.141 49.2474 120.013 53.7664 120.013 58.4784V71.7369C120.013 72.3697 119.761 72.9763 119.313 73.4237C118.866 73.8711 118.259 74.1228 117.626 74.1235Z" fill="#2F2E41"/>
<path d="M105.895 73.8142C113.09 73.8142 118.923 67.9824 118.923 60.7884C118.923 53.5945 113.09 47.7627 105.895 47.7627C98.7 47.7627 92.8672 53.5945 92.8672 60.7884C92.8672 67.9824 98.7 73.8142 105.895 73.8142Z" fill="#FFB7B7"/>
<path d="M124.217 59.8036H105.405L105.212 57.1032L104.248 59.8036H101.351L100.969 54.4515L99.057 59.8036H93.4521V59.5384C93.4563 55.8124 94.9386 52.2401 97.5737 49.6054C100.209 46.9706 103.782 45.4886 107.508 45.4844H110.161C113.887 45.4886 117.46 46.9706 120.095 49.6054C122.731 52.2401 124.213 55.8124 124.217 59.5384L124.217 59.8036Z" fill="#2F2E41"/>
<path d="M105.251 76.5987C105.109 76.5986 104.968 76.5861 104.829 76.5614L91.0537 74.1314V51.3691H106.217L105.842 51.8068C100.619 57.8974 104.554 67.7735 107.364 73.1184C107.571 73.5098 107.664 73.9518 107.631 74.3935C107.598 74.8351 107.441 75.2584 107.177 75.6147C106.957 75.9194 106.668 76.1674 106.333 76.3385C105.998 76.5095 105.627 76.5987 105.251 76.5987Z" fill="#2F2E41"/>
<path d="M270.259 131.312C269.4 131.399 268.536 131.419 267.674 131.372C267.528 131.356 267.38 131.398 267.264 131.49C267.148 131.581 267.073 131.715 267.054 131.861L265.406 144.225C265.279 145.122 264.911 145.969 264.342 146.674C263.873 147.236 263.524 147.887 263.317 148.589C263.11 149.291 263.05 150.028 263.14 150.754V171.756C263.14 171.756 263.034 174.556 265.186 174.556C267.761 174.879 270.367 174.879 272.943 174.556C272.943 174.556 274.665 174.23 274.665 171.646V150.967C274.797 150.245 274.77 149.504 274.586 148.794C274.403 148.084 274.067 147.422 273.602 146.855C273.052 146.147 272.696 145.308 272.57 144.42L270.858 131.798C270.838 131.656 270.766 131.527 270.654 131.436C270.543 131.346 270.402 131.302 270.259 131.312Z" fill="white"/>
<path d="M269.057 175.152C267.755 175.152 266.455 175.071 265.163 174.91C264.874 174.917 264.588 174.864 264.32 174.755C264.053 174.645 263.812 174.482 263.611 174.275C262.735 173.365 262.784 171.808 262.786 171.742L262.786 150.776C262.694 150.005 262.761 149.223 262.982 148.479C263.203 147.735 263.573 147.043 264.07 146.447C264.597 145.792 264.937 145.007 265.055 144.175L266.703 131.814C266.735 131.577 266.858 131.361 267.047 131.213C267.235 131.064 267.474 130.995 267.713 131.02C268.55 131.064 269.39 131.044 270.224 130.959L270.233 130.958C270.466 130.942 270.697 131.014 270.878 131.161C271.059 131.308 271.178 131.518 271.209 131.749L272.922 144.372C273.039 145.198 273.37 145.979 273.882 146.637C274.375 147.239 274.731 147.941 274.928 148.693C275.124 149.446 275.156 150.232 275.02 150.998V171.646C275.02 174.49 273.029 174.9 273.009 174.904C271.698 175.069 270.378 175.152 269.057 175.152ZM267.626 131.725C267.574 131.722 267.522 131.739 267.481 131.773C267.44 131.806 267.414 131.854 267.406 131.906L265.757 144.272C265.621 145.234 265.228 146.141 264.618 146.897C264.18 147.422 263.854 148.031 263.66 148.687C263.466 149.343 263.409 150.031 263.492 150.71L263.495 150.754V171.755C263.494 171.782 263.457 173.095 264.123 173.785C264.261 173.925 264.427 174.035 264.61 174.107C264.793 174.178 264.989 174.211 265.186 174.201L265.23 174.204C267.776 174.524 270.352 174.524 272.898 174.204C272.932 174.196 274.311 173.881 274.311 171.646L274.317 150.903C274.44 150.232 274.415 149.543 274.244 148.882C274.073 148.222 273.76 147.607 273.328 147.08C272.737 146.321 272.355 145.421 272.219 144.47L270.507 131.845C270.499 131.793 270.473 131.746 270.432 131.713C270.392 131.68 270.341 131.663 270.288 131.665C269.414 131.753 268.533 131.773 267.656 131.726C267.646 131.725 267.636 131.725 267.626 131.725Z" fill="#3F3D56"/>
<path d="M267.657 151.129H270.269C271.308 151.129 272.305 151.542 273.039 152.276C273.774 153.011 274.187 154.007 274.187 155.046V164.875C274.187 165.914 273.774 166.91 273.039 167.644C272.305 168.379 271.308 168.792 270.269 168.792H267.657C266.618 168.792 265.621 168.379 264.887 167.644C264.152 166.91 263.739 165.914 263.739 164.875V155.046C263.739 154.007 264.152 153.011 264.887 152.276C265.621 151.542 266.618 151.129 267.657 151.129Z" fill="#E27329"/>
<path d="M181.595 114.283C180.736 114.369 179.872 114.389 179.01 114.343C178.863 114.327 178.716 114.369 178.6 114.461C178.484 114.552 178.409 114.686 178.39 114.832L176.741 127.196C176.615 128.093 176.247 128.939 175.678 129.645C175.209 130.206 174.86 130.858 174.653 131.56C174.446 132.262 174.386 132.999 174.476 133.725V154.726C174.476 154.726 174.37 157.527 176.522 157.527C179.097 157.85 181.703 157.85 184.278 157.527C184.278 157.527 186.001 157.2 186.001 154.616V133.937C186.133 133.216 186.106 132.474 185.922 131.765C185.738 131.055 185.403 130.393 184.938 129.826C184.388 129.118 184.032 128.278 183.906 127.391L182.194 114.768C182.174 114.626 182.102 114.497 181.99 114.407C181.879 114.317 181.738 114.272 181.595 114.283Z" fill="white"/>
<path d="M180.393 158.123C179.091 158.123 177.791 158.042 176.499 157.881C176.21 157.888 175.923 157.835 175.656 157.725C175.389 157.616 175.147 157.453 174.946 157.245C174.071 156.336 174.119 154.779 174.122 154.713L174.122 133.746C174.03 132.975 174.097 132.194 174.318 131.45C174.539 130.705 174.909 130.014 175.406 129.418C175.933 128.763 176.273 127.978 176.391 127.146L178.039 114.785C178.071 114.547 178.194 114.332 178.383 114.183C178.571 114.035 178.81 113.966 179.049 113.991C179.886 114.035 180.725 114.014 181.559 113.93L181.569 113.929C181.802 113.912 182.033 113.985 182.214 114.132C182.395 114.279 182.514 114.489 182.545 114.72L184.258 127.343C184.375 128.169 184.706 128.949 185.218 129.608C185.711 130.21 186.067 130.911 186.264 131.664C186.46 132.417 186.492 133.203 186.356 133.969V154.616C186.356 157.461 184.365 157.871 184.345 157.875C183.034 158.04 181.714 158.123 180.393 158.123ZM178.962 114.695C178.91 114.693 178.858 114.71 178.817 114.744C178.776 114.777 178.749 114.825 178.742 114.877L177.093 127.242C176.957 128.204 176.564 129.111 175.954 129.867C175.516 130.392 175.19 131.002 174.996 131.658C174.802 132.314 174.745 133.002 174.828 133.681L174.831 133.725V154.726C174.83 154.752 174.792 156.066 175.459 156.756C175.597 156.896 175.763 157.005 175.946 157.077C176.129 157.149 176.325 157.181 176.522 157.172L176.566 157.175C179.112 157.494 181.688 157.494 184.234 157.175C184.268 157.167 185.647 156.852 185.647 154.616L185.653 133.874C185.775 133.203 185.751 132.513 185.58 131.853C185.409 131.193 185.096 130.578 184.664 130.05C184.073 129.292 183.691 128.392 183.555 127.44L181.843 114.816C181.835 114.764 181.809 114.717 181.768 114.684C181.728 114.65 181.676 114.633 181.624 114.636C180.749 114.724 179.869 114.744 178.991 114.697C178.982 114.696 178.972 114.695 178.962 114.695Z" fill="#3F3D56"/>
<path d="M178.993 134.101H181.605C182.644 134.101 183.641 134.513 184.375 135.248C185.11 135.982 185.523 136.979 185.523 138.017V147.846C185.523 148.885 185.11 149.881 184.375 150.616C183.641 151.351 182.644 151.763 181.605 151.763H178.993C177.954 151.763 176.957 151.351 176.223 150.616C175.488 149.881 175.075 148.885 175.075 147.846V138.017C175.075 136.979 175.488 135.982 176.223 135.248C176.957 134.513 177.954 134.101 178.993 134.101Z" fill="#E27329"/>
<path d="M166.567 96.2524C165.709 96.3389 164.845 96.3591 163.983 96.3127C163.836 96.2966 163.689 96.3389 163.573 96.4304C163.457 96.5219 163.381 96.6553 163.363 96.8018L161.714 109.165C161.587 110.063 161.22 110.909 160.651 111.615C160.181 112.176 159.832 112.828 159.626 113.53C159.419 114.232 159.359 114.968 159.449 115.694V136.696C159.449 136.696 159.342 139.496 161.494 139.496C164.07 139.82 166.676 139.82 169.251 139.496C169.251 139.496 170.974 139.17 170.974 136.586V115.907C171.105 115.186 171.078 114.444 170.895 113.734C170.711 113.024 170.375 112.363 169.91 111.795C169.36 111.087 169.005 110.248 168.879 109.36L167.167 96.7381C167.147 96.5962 167.074 96.467 166.963 96.3768C166.852 96.2866 166.71 96.2421 166.567 96.2524Z" fill="white"/>
<path d="M165.365 140.093C164.064 140.093 162.763 140.012 161.472 139.851C161.183 139.857 160.896 139.804 160.629 139.695C160.362 139.586 160.12 139.422 159.919 139.215C159.043 138.306 159.092 136.748 159.095 136.682L159.094 115.716C159.003 114.945 159.07 114.164 159.291 113.419C159.511 112.675 159.882 111.984 160.379 111.387C160.906 110.733 161.246 109.948 161.363 109.116L163.011 96.7549C163.043 96.5172 163.167 96.3013 163.356 96.1529C163.544 96.0046 163.783 95.9355 164.022 95.9603C164.859 96.0045 165.698 95.9842 166.532 95.8997L166.542 95.8989C166.775 95.882 167.005 95.9544 167.186 96.1013C167.368 96.2482 167.486 96.4587 167.518 96.6898L169.23 109.313C169.348 110.138 169.679 110.919 170.191 111.578C170.683 112.18 171.04 112.881 171.237 113.634C171.433 114.386 171.464 115.173 171.329 115.939V136.586C171.329 139.431 169.337 139.841 169.317 139.845C168.006 140.01 166.686 140.093 165.365 140.093ZM163.935 96.6651C163.882 96.6626 163.83 96.6797 163.79 96.7133C163.749 96.7468 163.722 96.7943 163.714 96.8465L162.066 109.212C161.93 110.174 161.536 111.081 160.927 111.837C160.488 112.362 160.162 112.971 159.969 113.627C159.775 114.283 159.718 114.972 159.801 115.651L159.803 115.694V136.696C159.803 136.722 159.765 138.035 160.432 138.725C160.569 138.866 160.735 138.975 160.919 139.047C161.102 139.119 161.298 139.151 161.494 139.142L161.539 139.145C164.085 139.464 166.661 139.464 169.207 139.145C169.241 139.136 170.62 138.822 170.62 136.586L170.625 115.844C170.748 115.173 170.723 114.483 170.552 113.823C170.382 113.162 170.069 112.547 169.636 112.02C169.046 111.261 168.664 110.362 168.528 109.41L166.815 96.7856C166.808 96.7338 166.781 96.6866 166.741 96.6534C166.7 96.6202 166.649 96.6032 166.597 96.6057C165.722 96.6932 164.842 96.7136 163.964 96.6667C163.954 96.6656 163.945 96.6651 163.935 96.6651Z" fill="#3F3D56"/>
<path d="M163.965 116.07H166.578C167.617 116.07 168.613 116.483 169.348 117.218C170.083 117.952 170.495 118.948 170.495 119.987V129.816C170.495 130.855 170.083 131.851 169.348 132.586C168.613 133.32 167.617 133.733 166.578 133.733H163.965C162.926 133.733 161.93 133.32 161.195 132.586C160.461 131.851 160.048 130.855 160.048 129.816V119.987C160.048 118.948 160.461 117.952 161.195 117.218C161.93 116.483 162.926 116.07 163.965 116.07Z" fill="#E27329"/>
<path d="M28.1462 35.5598C35.0626 35.5598 40.6694 29.9539 40.6694 23.0387C40.6694 16.1235 35.0626 10.5176 28.1462 10.5176C21.2299 10.5176 15.623 16.1235 15.623 23.0387C15.623 29.9539 21.2299 35.5598 28.1462 35.5598Z" fill="#F0F0F0"/>
<path d="M316.679 25.0422C323.596 25.0422 329.203 19.4363 329.203 12.5211C329.203 5.60589 323.596 0 316.679 0C309.763 0 304.156 5.60589 304.156 12.5211C304.156 19.4363 309.763 25.0422 316.679 25.0422Z" fill="#F0F0F0"/>
<path d="M173.414 56.5958C178.394 56.5958 182.431 52.5596 182.431 47.5806C182.431 42.6017 178.394 38.5654 173.414 38.5654C168.434 38.5654 164.397 42.6017 164.397 47.5806C164.397 52.5596 168.434 56.5958 173.414 56.5958Z" fill="#F0F0F0"/>
</g>
<defs>
<clipPath id="clip0_1519_2063">
<rect width="367" height="320" fill="white"/>
</clipPath>
</defs>
</svg>