<svg width="414" height="153" viewBox="0 0 414 153" fill="none" xmlns="http://www.w3.org/2000/svg">
<path d="M111 113C111 103.791 108.749 94.7236 104.447 86.6018C100.144 78.48 93.923 71.5541 86.3342 66.4377C78.7453 61.3213 70.023 58.1723 60.94 57.2697C51.8569 56.367 42.6933 57.7385 34.2611 61.2628C25.8288 64.787 18.3881 70.3551 12.5979 77.474C6.8078 84.5928 2.84702 93.0427 1.06642 102.075C-0.714175 111.107 -0.259622 120.443 2.38981 129.256C5.03925 138.069 9.80179 146.086 16.2556 152.598L55.5 113H111Z" fill="white"/>
<path d="M208 85.5C208 70.5153 201.573 56.1443 190.134 45.5485C178.694 34.9527 163.178 29 147 29C130.822 29 115.306 34.9527 103.866 45.5485C92.4268 56.1443 86 70.5153 86 85.5L147 85.5H208Z" fill="white"/>
<path d="M320 64C320 99.3462 290.451 128 254 128C217.549 128 188 99.3462 188 64C188 28.6538 217.549 0 254 0C290.451 0 320 28.6538 320 64Z" fill="white"/>
<path d="M409.162 152.979C412.289 145.241 413.932 136.933 413.998 128.529C414.064 120.124 412.552 111.789 409.548 103.997C406.543 96.2064 402.106 89.1124 396.488 83.1205C390.871 77.1287 384.184 72.3564 376.808 69.076C369.433 65.7957 361.514 64.0716 353.504 64.0022C345.494 63.9328 337.549 65.5194 330.123 68.6714C322.697 71.8235 315.935 76.4793 310.224 82.3729C304.513 88.2666 299.965 95.2827 296.838 103.021L353 128L409.162 152.979Z" fill="white"/>
<path d="M16 80H368C390.644 80 409 98.3563 409 121V153L16 152.605V80Z" fill="white"/>
</svg>