<svg width="512" height="512" viewBox="0 0 512 512" fill="none" xmlns="http://www.w3.org/2000/svg">
<rect width="512" height="512" rx="70" fill="#FB6D3A"/>
<path d="M157.232 247.577C148.772 247.577 142.125 240.929 142.125 232.467V173.234C142.125 160.541 153.002 150.266 165.692 150.87C171.735 150.87 177.778 153.892 182.008 158.123C181.404 155.706 180.799 153.288 180.799 150.266C181.404 135.156 194.093 123.067 209.201 123.067C220.682 123.067 230.955 130.925 234.581 141.804C246.062 131.529 263.586 132.738 273.859 144.826C275.068 146.639 276.88 148.453 277.485 150.266C281.715 147.244 285.945 146.035 291.383 146.035C304.073 146.035 314.346 156.31 314.346 169.003C314.346 174.443 312.533 179.278 308.908 183.509L307.095 185.927H264.19C264.19 186.531 264.19 186.531 264.19 187.135C264.19 189.553 264.19 191.366 264.19 193.784C264.19 194.993 264.19 196.202 264.19 196.806C264.19 211.917 251.5 224.005 235.789 224.005C223.099 224.005 211.618 214.334 209.201 201.642C203.762 213.125 189.864 217.961 178.382 212.521C175.965 211.312 174.152 210.103 172.339 208.29V233.071C172.339 241.533 165.692 248.182 157.232 247.577Z" fill="white"/>
<path d="M264.199 185.931H240.627C240.627 186.535 240.627 186.535 240.627 187.14C240.627 189.557 240.627 191.371 240.627 193.788C240.627 194.997 240.627 196.206 240.627 196.81C240.627 207.086 233.978 216.756 224.912 220.987C228.539 222.8 232.769 223.405 236.396 223.405C251.506 223.405 264.199 211.317 264.199 196.206C264.199 195.602 264.199 194.393 264.199 193.184C264.199 190.766 264.199 188.953 264.199 186.535C264.199 186.535 264.199 186.535 264.199 185.931Z" fill="#F7EEBA"/>
<path d="M291.381 146.644C287.15 146.644 283.524 147.852 279.897 149.666C290.777 155.71 294.403 169.007 288.359 179.887C287.755 181.095 286.546 182.304 285.941 183.513L284.128 185.931H307.7L309.514 183.513C313.14 179.282 314.953 174.447 314.953 169.007C314.349 156.919 304.074 146.644 291.381 146.644Z" fill="#F7EEBA"/>
<path d="M183.829 397.48C172.347 398.688 162.074 390.831 160.866 379.347C160.866 377.534 160.866 376.325 160.866 374.512V248.188L164.491 246.375C169.93 243.957 172.951 238.518 172.951 233.078V210.714L180.807 213.736C183.224 214.341 185.641 214.945 188.663 214.945C194.101 214.945 200.144 213.132 204.374 209.505L209.813 204.67L213.439 210.714C218.273 219.176 227.337 224.011 237.006 224.011C252.113 224.011 264.803 211.923 264.803 196.813C264.803 196.208 264.803 194.999 264.803 193.791L265.407 185.933H305.29C308.915 185.933 311.937 188.955 311.937 192.582V374.512C313.145 385.996 305.29 396.271 293.808 397.48C291.995 397.48 290.787 397.48 288.974 397.48H183.829Z" fill="#FBCF4C"/>
<path d="M304.678 185.933H272.651C276.277 185.933 278.694 188.955 278.694 192.582V374.512C279.903 385.996 272.047 396.271 260.566 397.48C258.753 397.48 257.544 397.48 255.731 397.48H287.758C299.24 398.688 309.513 390.831 310.721 379.347C310.721 377.534 310.721 376.325 310.721 374.512V192.582C310.721 188.955 308.304 185.933 304.678 185.933Z" fill="#EDB248"/>
<path d="M311.319 365.432V331.584H333.074C346.972 331.584 348.181 317.683 348.181 311.639V271.747C348.181 265.703 346.972 251.801 333.074 251.801H311.319V218.558H351.202C368.726 218.558 378.999 231.855 378.999 254.823V328.562C378.999 351.53 368.726 364.827 351.202 364.827L311.319 365.432Z" fill="#FBCF4C"/>
<path d="M351.203 218.558H331.866C349.39 218.558 359.663 231.855 359.663 254.823V328.562C359.663 351.53 349.39 364.827 331.866 364.827H351.203C368.727 364.827 379 351.53 379 328.562V254.823C379 231.855 368.727 218.558 351.203 218.558Z" fill="#EDB248"/>
<path d="M191.337 235.646C188.751 235.646 187.028 236.749 187.028 238.403V283.619C187.028 285.273 188.751 286.376 191.337 286.376C193.922 286.376 195.645 285.273 195.645 283.619V238.403C195.645 236.749 193.491 235.646 191.337 235.646Z" fill="#78565A"/>
<path d="M211.57 235.646C208.985 235.646 207.262 236.749 207.262 238.403V283.619C207.262 285.273 208.985 286.376 211.57 286.376C214.156 286.376 215.879 285.273 215.879 283.619V238.403C215.879 236.749 214.156 235.646 211.57 235.646Z" fill="#78565A"/>
<path d="M232.237 235.646C229.651 235.646 227.928 236.749 227.928 238.403V283.619C227.928 285.273 229.651 286.376 232.237 286.376C234.822 286.376 236.545 285.273 236.545 283.619V238.403C236.545 236.749 234.391 235.646 232.237 235.646Z" fill="#78565A"/>
</svg>