<svg width="72" height="72" viewBox="0 0 72 72" fill="none" xmlns="http://www.w3.org/2000/svg">
<path d="M63 42.75H60.75V18C60.75 15.066 58.869 12.564 56.25 11.6348V11.25C56.25 7.5285 53.2215 4.5 49.5 4.5H31.5C27.7785 4.5 24.75 7.5285 24.75 11.25V21.3008L11.1443 33.9975C9.77625 35.2755 9 37.062 9 38.934V58.5C9 62.2282 12.0218 65.25 15.75 65.25H36C39.7282 65.25 42.75 62.2282 42.75 58.5V38.934C42.75 37.062 41.9738 35.2755 40.6058 33.9998L27 21.3008V11.25C27 8.76825 29.0182 6.75 31.5 6.75H49.5C51.9818 6.75 54 8.76825 54 11.25H49.5C45.7785 11.25 42.75 14.2785 42.75 18C42.75 21.7215 45.7785 24.75 49.5 24.75C53.2215 24.75 56.25 21.7215 56.25 18V14.1053C57.5955 14.8838 58.5 16.3372 58.5 18V42.75H56.25C55.008 42.75 54 43.758 54 45V54C54 55.242 55.008 56.25 56.25 56.25H63C64.242 56.25 65.25 55.242 65.25 54V45C65.25 43.758 64.242 42.75 63 42.75ZM54 18C54 20.4818 51.9818 22.5 49.5 22.5C47.0182 22.5 45 20.4818 45 18C45 15.5182 47.0182 13.5 49.5 13.5H54V18ZM18 58.5C18 59.742 16.992 60.75 15.75 60.75C14.508 60.75 13.5 59.742 13.5 58.5C13.5 57.258 14.508 56.25 15.75 56.25C16.992 56.25 18 57.258 18 58.5ZM24.75 58.5C24.75 59.742 23.742 60.75 22.5 60.75C21.258 60.75 20.25 59.742 20.25 58.5C20.25 57.258 21.258 56.25 22.5 56.25C23.742 56.25 24.75 57.258 24.75 58.5ZM31.5 58.5C31.5 59.742 30.492 60.75 29.25 60.75C28.008 60.75 27 59.742 27 58.5C27 57.258 28.008 56.25 29.25 56.25C30.492 56.25 31.5 57.258 31.5 58.5ZM38.25 58.5C38.25 59.742 37.242 60.75 36 60.75C34.758 60.75 33.75 59.742 33.75 58.5C33.75 57.258 34.758 56.25 36 56.25C37.242 56.25 38.25 57.258 38.25 58.5ZM13.5 49.5C13.5 48.258 14.508 47.25 15.75 47.25C16.992 47.25 18 48.258 18 49.5C18 50.742 16.992 51.75 15.75 51.75C14.508 51.75 13.5 50.742 13.5 49.5ZM20.25 49.5C20.25 48.258 21.258 47.25 22.5 47.25C23.742 47.25 24.75 48.258 24.75 49.5C24.75 50.742 23.742 51.75 22.5 51.75C21.258 51.75 20.25 50.742 20.25 49.5ZM27 49.5C27 48.258 28.008 47.25 29.25 47.25C30.492 47.25 31.5 48.258 31.5 49.5C31.5 50.742 30.492 51.75 29.25 51.75C28.008 51.75 27 50.742 27 49.5ZM33.75 49.5C33.75 48.258 34.758 47.25 36 47.25C37.242 47.25 38.25 48.258 38.25 49.5C38.25 50.742 37.242 51.75 36 51.75C34.758 51.75 33.75 50.742 33.75 49.5ZM19.125 56.25C17.883 56.25 16.875 55.242 16.875 54C16.875 52.758 17.883 51.75 19.125 51.75C20.367 51.75 21.375 52.758 21.375 54C21.375 55.242 20.367 56.25 19.125 56.25ZM25.875 56.25C24.633 56.25 23.625 55.242 23.625 54C23.625 52.758 24.633 51.75 25.875 51.75C27.117 51.75 28.125 52.758 28.125 54C28.125 55.242 27.117 56.25 25.875 56.25ZM32.625 51.75C33.867 51.75 34.875 52.758 34.875 54C34.875 55.242 33.867 56.25 32.625 56.25C31.383 56.25 30.375 55.242 30.375 54C30.375 52.758 31.383 51.75 32.625 51.75Z" fill="#777777"/>
</svg>