<svg width="24" height="24" viewBox="0 0 24 24" fill="none" xmlns="http://www.w3.org/2000/svg">
<path fill-rule="evenodd" clip-rule="evenodd" d="M15.2729 7.63619V9.818H17.4547V7.63619C17.4547 4.62367 15.0126 2.18164 12.0001 2.18164C8.98762 2.18164 6.54559 4.62367 6.54559 7.63619V9.818H8.72741V7.63619C8.72741 5.8287 10.1926 4.36346 12.0001 4.36346C13.8076 4.36346 15.2729 5.8287 15.2729 7.63619ZM4.36377 11.9998C4.36377 11.3974 4.85223 10.9089 5.45468 10.9089H18.5456C19.148 10.9089 19.6365 11.3974 19.6365 11.9998V20.7271C19.6365 21.3295 19.148 21.818 18.5456 21.818H5.45468C4.85223 21.818 4.36377 21.3295 4.36377 20.7271V11.9998ZM10.9092 15.2725C10.9092 14.6701 11.3977 14.1816 12.0001 14.1816C12.6026 14.1816 13.091 14.6701 13.091 15.2725V17.4544C13.091 18.0568 12.6026 18.5453 12.0001 18.5453C11.3977 18.5453 10.9092 18.0568 10.9092 17.4544V15.2725Z" fill="#8C939C"/>
</svg>