<svg width="21" height="21" viewBox="0 0 21 21" fill="none" xmlns="http://www.w3.org/2000/svg">
<g clip-path="url(#clip0_1315_185)">
<path d="M21 0H0V21H21V0Z" fill="white" fill-opacity="0.01"/>
<path d="M14.875 2.625H6.125C4.192 2.625 2.625 4.192 2.625 6.125V14.875C2.625 16.808 4.192 18.375 6.125 18.375H14.875C16.808 18.375 18.375 16.808 18.375 14.875V6.125C18.375 4.192 16.808 2.625 14.875 2.625Z" stroke="white" stroke-width="2" stroke-linejoin="round"/>
<path d="M10.5 14C12.433 14 14 12.433 14 10.5C14 8.56699 12.433 7 10.5 7C8.56699 7 7 8.56699 7 10.5C7 12.433 8.56699 14 10.5 14Z" stroke="white" stroke-width="2" stroke-linejoin="round"/>
<path d="M15.3125 6.5625C15.7958 6.5625 16.1875 6.17076 16.1875 5.6875C16.1875 5.20424 15.7958 4.8125 15.3125 4.8125C14.8292 4.8125 14.4375 5.20424 14.4375 5.6875C14.4375 6.17076 14.8292 6.5625 15.3125 6.5625Z" fill="white"/>
</g>
<defs>
<clipPath id="clip0_1315_185">
<rect width="21" height="21" fill="white"/>
</clipPath>
</defs>
</svg>