<svg width="20" height="18" viewBox="0 0 20 18" fill="none" xmlns="http://www.w3.org/2000/svg">
<path d="M0.3507 8.3741L4.9488 10.0886L6.7413 15.8557C6.8192 16.2454 7.2868 16.3233 7.5985 16.0895L10.1703 13.9853C10.4041 13.7515 10.7938 13.7515 11.1055 13.9853L15.7036 17.3364C16.0154 17.5702 16.483 17.4144 16.5609 17.0247L19.99 0.658701C20.0679 0.269001 19.6782 -0.120699 19.2886 0.0352012L0.3507 7.3609C-0.1169 7.5168 -0.1169 8.2182 0.3507 8.3741ZM6.5075 9.2313L15.5477 3.6981C15.7036 3.6201 15.8595 3.8539 15.7036 3.9319L8.2999 10.868C8.0661 11.1018 7.8323 11.4135 7.8323 11.8032L7.5985 13.6736C7.5985 13.9074 7.2089 13.9853 7.1309 13.6736L6.1957 10.2445C5.9619 9.8548 6.1178 9.3872 6.5075 9.2313Z" fill="white"/>
</svg>